<mxfile host="app.diagrams.net" agent="Mozilla/5.0 (Windows NT 10.0; Win64; x64) AppleWebKit/537.36 (KHTML, like Gecko) Chrome/130.0.0.0 Safari/537.36" version="24.8.6">
  <diagram name="Сторінка-1" id="jm-SyfjzjFGHm50TiuHi">
    <mxGraphModel grid="1" page="1" gridSize="10" guides="1" tooltips="1" connect="1" arrows="1" fold="1" pageScale="1" pageWidth="827" pageHeight="1169" math="0" shadow="0">
      <root>
        <mxCell id="0" />
        <mxCell id="1" parent="0" />
        <mxCell id="6dtSxNoC-A3EKJ8Eqwm--3" value="" style="edgeStyle=orthogonalEdgeStyle;rounded=0;orthogonalLoop=1;jettySize=auto;html=1;" edge="1" parent="1" source="6dtSxNoC-A3EKJ8Eqwm--1" target="6dtSxNoC-A3EKJ8Eqwm--2">
          <mxGeometry relative="1" as="geometry" />
        </mxCell>
        <mxCell id="6dtSxNoC-A3EKJ8Eqwm--1" value="&lt;font style=&quot;font-size: 18px;&quot;&gt;Start&lt;/font&gt;" style="ellipse;whiteSpace=wrap;html=1;" vertex="1" parent="1">
          <mxGeometry x="310" y="40" width="120" height="80" as="geometry" />
        </mxCell>
        <mxCell id="6dtSxNoC-A3EKJ8Eqwm--5" value="" style="edgeStyle=orthogonalEdgeStyle;rounded=0;orthogonalLoop=1;jettySize=auto;html=1;" edge="1" parent="1" source="6dtSxNoC-A3EKJ8Eqwm--2" target="6dtSxNoC-A3EKJ8Eqwm--4">
          <mxGeometry relative="1" as="geometry" />
        </mxCell>
        <mxCell id="6dtSxNoC-A3EKJ8Eqwm--2" value="&lt;font style=&quot;font-size: 14px;&quot;&gt;Ініцілізація&lt;br&gt;int minutes;&lt;/font&gt;" style="rounded=0;whiteSpace=wrap;html=1;" vertex="1" parent="1">
          <mxGeometry x="310" y="160" width="120" height="60" as="geometry" />
        </mxCell>
        <mxCell id="6dtSxNoC-A3EKJ8Eqwm--7" value="" style="edgeStyle=orthogonalEdgeStyle;rounded=0;orthogonalLoop=1;jettySize=auto;html=1;" edge="1" parent="1" source="6dtSxNoC-A3EKJ8Eqwm--4" target="6dtSxNoC-A3EKJ8Eqwm--6">
          <mxGeometry relative="1" as="geometry" />
        </mxCell>
        <mxCell id="6dtSxNoC-A3EKJ8Eqwm--4" value="&lt;font style=&quot;font-size: 14px;&quot;&gt;Введення &lt;br&gt;часового &lt;br&gt;інтервалу &lt;br&gt;хвилинах&lt;/font&gt;" style="shape=parallelogram;perimeter=parallelogramPerimeter;whiteSpace=wrap;html=1;fixedSize=1;" vertex="1" parent="1">
          <mxGeometry x="305" y="260" width="130" height="70" as="geometry" />
        </mxCell>
        <mxCell id="6dtSxNoC-A3EKJ8Eqwm--9" value="" style="edgeStyle=orthogonalEdgeStyle;rounded=0;orthogonalLoop=1;jettySize=auto;html=1;" edge="1" parent="1" source="6dtSxNoC-A3EKJ8Eqwm--6" target="6dtSxNoC-A3EKJ8Eqwm--8">
          <mxGeometry relative="1" as="geometry" />
        </mxCell>
        <mxCell id="6dtSxNoC-A3EKJ8Eqwm--6" value="&lt;font style=&quot;font-size: 14px;&quot;&gt;Ініцілізація &lt;br&gt;string Hours;&lt;/font&gt;" style="rounded=0;whiteSpace=wrap;html=1;" vertex="1" parent="1">
          <mxGeometry x="310" y="370" width="120" height="60" as="geometry" />
        </mxCell>
        <mxCell id="6dtSxNoC-A3EKJ8Eqwm--11" value="" style="edgeStyle=orthogonalEdgeStyle;rounded=0;orthogonalLoop=1;jettySize=auto;html=1;" edge="1" parent="1" source="6dtSxNoC-A3EKJ8Eqwm--8" target="6dtSxNoC-A3EKJ8Eqwm--10">
          <mxGeometry relative="1" as="geometry" />
        </mxCell>
        <mxCell id="6dtSxNoC-A3EKJ8Eqwm--8" value="&lt;font style=&quot;font-size: 14px;&quot;&gt;Обчислення кількості годин&lt;/font&gt;" style="rounded=0;whiteSpace=wrap;html=1;" vertex="1" parent="1">
          <mxGeometry x="310" y="460" width="120" height="60" as="geometry" />
        </mxCell>
        <mxCell id="6dtSxNoC-A3EKJ8Eqwm--13" value="" style="edgeStyle=orthogonalEdgeStyle;rounded=0;orthogonalLoop=1;jettySize=auto;html=1;" edge="1" parent="1" source="6dtSxNoC-A3EKJ8Eqwm--10" target="6dtSxNoC-A3EKJ8Eqwm--12">
          <mxGeometry relative="1" as="geometry" />
        </mxCell>
        <mxCell id="6dtSxNoC-A3EKJ8Eqwm--10" value="&lt;font style=&quot;font-size: 14px;&quot;&gt;Обчислення кількості хвилин&lt;/font&gt;" style="rounded=0;whiteSpace=wrap;html=1;" vertex="1" parent="1">
          <mxGeometry x="310" y="550" width="120" height="60" as="geometry" />
        </mxCell>
        <mxCell id="6dtSxNoC-A3EKJ8Eqwm--15" value="" style="edgeStyle=orthogonalEdgeStyle;rounded=0;orthogonalLoop=1;jettySize=auto;html=1;" edge="1" parent="1" source="6dtSxNoC-A3EKJ8Eqwm--12" target="6dtSxNoC-A3EKJ8Eqwm--14">
          <mxGeometry relative="1" as="geometry" />
        </mxCell>
        <mxCell id="6dtSxNoC-A3EKJ8Eqwm--19" value="" style="edgeStyle=orthogonalEdgeStyle;rounded=0;orthogonalLoop=1;jettySize=auto;html=1;" edge="1" parent="1" source="6dtSxNoC-A3EKJ8Eqwm--12" target="6dtSxNoC-A3EKJ8Eqwm--18">
          <mxGeometry relative="1" as="geometry" />
        </mxCell>
        <mxCell id="6dtSxNoC-A3EKJ8Eqwm--12" value="&lt;font style=&quot;font-size: 14px;&quot;&gt;Година &lt;br&gt;більше 1 ?&lt;/font&gt;" style="rhombus;whiteSpace=wrap;html=1;" vertex="1" parent="1">
          <mxGeometry x="310" y="640" width="120" height="80" as="geometry" />
        </mxCell>
        <mxCell id="6dtSxNoC-A3EKJ8Eqwm--14" value="&lt;font style=&quot;font-size: 14px;&quot;&gt;Hours = &quot; hours&quot;&lt;/font&gt;" style="rounded=0;whiteSpace=wrap;html=1;" vertex="1" parent="1">
          <mxGeometry x="480" y="650" width="120" height="60" as="geometry" />
        </mxCell>
        <mxCell id="6dtSxNoC-A3EKJ8Eqwm--16" value="&lt;font style=&quot;font-size: 14px;&quot;&gt;YES&lt;/font&gt;" style="text;strokeColor=none;align=center;fillColor=none;html=1;verticalAlign=middle;whiteSpace=wrap;rounded=0;" vertex="1" parent="1">
          <mxGeometry x="420" y="650" width="60" height="30" as="geometry" />
        </mxCell>
        <mxCell id="6dtSxNoC-A3EKJ8Eqwm--18" value="&lt;font style=&quot;font-size: 14px;&quot;&gt;Hours = &quot; hour&quot;&lt;/font&gt;" style="rounded=0;whiteSpace=wrap;html=1;" vertex="1" parent="1">
          <mxGeometry x="140" y="650" width="120" height="60" as="geometry" />
        </mxCell>
        <mxCell id="6dtSxNoC-A3EKJ8Eqwm--20" value="&lt;font style=&quot;font-size: 14px;&quot;&gt;NO&lt;/font&gt;" style="text;strokeColor=none;align=center;fillColor=none;html=1;verticalAlign=middle;whiteSpace=wrap;rounded=0;" vertex="1" parent="1">
          <mxGeometry x="260" y="650" width="60" height="30" as="geometry" />
        </mxCell>
        <mxCell id="6dtSxNoC-A3EKJ8Eqwm--21" value="" style="endArrow=none;html=1;rounded=0;exitX=0.5;exitY=1;exitDx=0;exitDy=0;" edge="1" parent="1" source="6dtSxNoC-A3EKJ8Eqwm--18">
          <mxGeometry width="50" height="50" relative="1" as="geometry">
            <mxPoint x="480" y="650" as="sourcePoint" />
            <mxPoint x="200" y="790" as="targetPoint" />
          </mxGeometry>
        </mxCell>
        <mxCell id="6dtSxNoC-A3EKJ8Eqwm--22" value="" style="endArrow=none;html=1;rounded=0;exitX=0.5;exitY=1;exitDx=0;exitDy=0;" edge="1" parent="1">
          <mxGeometry width="50" height="50" relative="1" as="geometry">
            <mxPoint x="539.38" y="710" as="sourcePoint" />
            <mxPoint x="539.38" y="790" as="targetPoint" />
          </mxGeometry>
        </mxCell>
        <mxCell id="6dtSxNoC-A3EKJ8Eqwm--23" value="" style="endArrow=none;html=1;rounded=0;" edge="1" parent="1">
          <mxGeometry width="50" height="50" relative="1" as="geometry">
            <mxPoint x="200" y="790" as="sourcePoint" />
            <mxPoint x="540" y="790" as="targetPoint" />
          </mxGeometry>
        </mxCell>
        <mxCell id="6dtSxNoC-A3EKJ8Eqwm--29" value="" style="edgeStyle=orthogonalEdgeStyle;rounded=0;orthogonalLoop=1;jettySize=auto;html=1;" edge="1" parent="1" source="6dtSxNoC-A3EKJ8Eqwm--24" target="6dtSxNoC-A3EKJ8Eqwm--28">
          <mxGeometry relative="1" as="geometry" />
        </mxCell>
        <mxCell id="6dtSxNoC-A3EKJ8Eqwm--24" value="&lt;font style=&quot;font-size: 14px;&quot;&gt;Виведення часового проміжку в годинах та хвилинах&lt;/font&gt;" style="shape=parallelogram;perimeter=parallelogramPerimeter;whiteSpace=wrap;html=1;fixedSize=1;" vertex="1" parent="1">
          <mxGeometry x="280" y="840" width="180" height="60" as="geometry" />
        </mxCell>
        <mxCell id="6dtSxNoC-A3EKJ8Eqwm--27" value="" style="endArrow=classic;html=1;rounded=0;entryX=0.5;entryY=0;entryDx=0;entryDy=0;" edge="1" parent="1" target="6dtSxNoC-A3EKJ8Eqwm--24">
          <mxGeometry width="50" height="50" relative="1" as="geometry">
            <mxPoint x="369.65999999999997" y="790" as="sourcePoint" />
            <mxPoint x="370" y="830" as="targetPoint" />
          </mxGeometry>
        </mxCell>
        <mxCell id="6dtSxNoC-A3EKJ8Eqwm--28" value="&lt;font style=&quot;font-size: 18px;&quot;&gt;End&lt;/font&gt;" style="ellipse;whiteSpace=wrap;html=1;" vertex="1" parent="1">
          <mxGeometry x="310" y="940" width="120" height="80" as="geometry" />
        </mxCell>
      </root>
    </mxGraphModel>
  </diagram>
</mxfile>
